<svg xmlns="http://www.w3.org/2000/svg" xmlns:xlink="http://www.w3.org/1999/xlink" version="1.1" x="0px" y="0px" viewBox="0 0 100 100" style="enable-background:new 0 0 100 100;" xml:space="preserve"><g><path style="fill:#FF8552;" d="M59.9,56.7c-0.7-3.8-3.1-6.1-5.9-5.8c-1.8,0.2-3.2,1.3-3.9,2.8c-1,2.3-3.5,6.3-8.2,7.6c-3.5,0.9-6.1-0.5-8.6-1.9   c-2.2-1.2-4.4-2.5-7-1.8c-2.9,0.8-4,4.1-2.9,8.3c1.7,6.2,6.2,9.1,10.5,9.1c0.9,0,1.8-0.1,2.6-0.3c3-0.8,5.4-2.5,7.4-4.6   c3.1,0.9,5.9,1,8.5,0.3C58.5,68.8,61,62.2,59.9,56.7z M36.1,72.8c-6,1.6-9.7-3.5-10.7-7.3c-0.7-2.5-0.5-5.4,1.5-5.9   c0.3-0.1,0.6-0.1,0.9-0.1c1.4,0,2.9,0.8,4.5,1.7c2.6,1.5,5.8,3.3,10.1,2.1c2.1-0.6,3.9-1.6,5.3-2.9C45.6,65.3,42,71.2,36.1,72.8z    M52,68.5c-2,0.6-4.2,0.5-6.6-0.1c3.6-4.6,5.4-10.3,6.2-12.8c0.2-0.5,0.3-1,0.4-1.2c0.4-0.8,1.3-1.3,2.2-1.5c2.1-0.2,3.3,2,3.7,4.2   C58.7,60.9,57.4,67,52,68.5z"/><path style="fill:#FF8552;" d="M52.3,44.6c1.8,1.9,4.1,3,6.5,3.7c0.6,2.7,1.7,4.8,3.3,6.6c1.7,1.8,4,2.6,6.3,2.6c2.6,0,5.3-1,7.2-2.6c2.6-2.2,3.4-5,1.9-7   c-0.9-1.3-2.4-2-3.9-1.9c-2.1,0.2-6.1,0-9-3c-2.1-2.2-2.1-4.7-2.1-7.2c0-2.2,0-4.4-1.6-6.1c-1.8-1.9-4.9-1.4-7.7,1.3   C49.7,34.5,48.1,40.3,52.3,44.6z M73,48.1c0.4-0.1,0.9-0.2,1-0.2c0,0,0,0,0,0c0.7,0,1.4,0.4,1.9,1c1,1.4-0.2,3.2-1.6,4.3   c-2.5,2.1-7.6,3.6-10.8,0.2c-1.2-1.2-2.1-2.8-2.6-4.7C65.9,49.5,70.8,48.5,73,48.1z M54.8,32.4c1.1-1,2.4-1.8,3.6-1.8   c0.5,0,0.9,0.2,1.3,0.5c1,1.1,1,2.7,1,4.7c0,2.6-0.1,5.8,2.6,8.6c1.2,1.2,2.5,2,3.8,2.6c-4.4,0.3-9.9-0.1-13.4-3.7   C50.1,39.5,52.4,34.7,54.8,32.4z"/><path style="fill:#FF8552;" d="M25.6,35.2c-2,3.3-1.9,8.2,1.6,10.7c1.5,1.1,3.3,1.7,5.4,1.8c0.8,1.8,1.9,3.4,3.6,4.6c1.2,0.9,2.6,1.3,4,1.3   c1,0,2-0.2,3-0.7c2.6-1.2,4.8-3.9,5.1-6.4c0.1-1.3-0.3-2.4-1.3-3.1c-1.5-1.1-3.3-0.8-5-0.5c-1.9,0.3-3.7,0.6-5.6-0.7   c-2.5-1.8-3.1-4.8-3.2-6.4c-0.1-1.3-0.8-2.4-2-2.9C29.2,31.9,27,32.8,25.6,35.2z M35.1,43.8c2.5,1.8,5,1.4,7,1.1   c1.6-0.3,2.7-0.4,3.5,0.2c0.1,0.1,0.6,0.4,0.5,1.3C46,47.8,44.5,50,42.2,51c-1.2,0.6-3.1,0.9-5-0.4c-2.8-2-3.8-5.6-4.2-8.8   C33.6,42.5,34.3,43.2,35.1,43.8z M29.5,34.5c0.2,0,0.4,0,0.6,0.1c0.5,0.2,0.8,0.7,0.9,1.2c0,0.1,0,0.4,0,0.8   c-0.1,1.7-0.2,5.4,0.8,9c-1.4-0.2-2.5-0.6-3.5-1.4c-2.8-2-2.3-5.9-1-8C27.5,35.9,28.4,34.5,29.5,34.5z"/><path style="fill:#FF8552;" d="M95.5,37.5l0.5-0.5c0.4-0.4,0.4-1,0-1.4c-0.4-0.4-1-0.4-1.4,0L94.1,36l-0.5-0.5c-0.4-0.4-1-0.4-1.4,0c-0.4,0.4-0.4,1,0,1.4   l0.5,0.5L92.2,38c-0.4,0.4-0.4,1,0,1.4c0.2,0.2,0.5,0.3,0.7,0.3s0.5-0.1,0.7-0.3l0.5-0.5l0.5,0.5c0.2,0.2,0.5,0.3,0.7,0.3   s0.5-0.1,0.7-0.3c0.4-0.4,0.4-1,0-1.4L95.5,37.5z"/><path style="fill:#FF8552;" d="M23.8,19.2c0.2,0.2,0.5,0.3,0.7,0.3s0.5-0.1,0.7-0.3l0.5-0.5l0.5,0.5c0.2,0.2,0.5,0.3,0.7,0.3s0.5-0.1,0.7-0.3   c0.4-0.4,0.4-1,0-1.4l-0.5-0.5l0.5-0.5c0.4-0.4,0.4-1,0-1.4s-1-0.4-1.4,0l-0.5,0.5l-0.5-0.5c-0.4-0.4-1-0.4-1.4,0s-0.4,1,0,1.4   l0.5,0.5l-0.5,0.5C23.4,18.2,23.4,18.9,23.8,19.2z"/><path style="fill:#FF8552;" d="M79,65.5h-0.7v-0.7c0-0.6-0.4-1-1-1s-1,0.4-1,1v0.7h-0.7c-0.6,0-1,0.4-1,1s0.4,1,1,1h0.7v0.7c0,0.6,0.4,1,1,1s1-0.4,1-1   v-0.7H79c0.6,0,1-0.4,1-1S79.6,65.5,79,65.5z"/><path style="fill:#FF8552;" d="M20.9,54.6h0.7c0.6,0,1-0.4,1-1s-0.4-1-1-1h-0.7v-0.7c0-0.6-0.4-1-1-1s-1,0.4-1,1v0.7h-0.7c-0.6,0-1,0.4-1,1s0.4,1,1,1h0.7   v0.7c0,0.6,0.4,1,1,1s1-0.4,1-1V54.6z"/><path style="fill:#FF8552;" d="M10.9,76.5c-0.4-0.4-1-0.4-1.4,0l-0.3,0.3L9,76.5c-0.4-0.4-1-0.4-1.4,0s-0.4,1,0,1.4l0.3,0.3l-0.3,0.3   c-0.4,0.4-0.4,1,0,1.4C7.7,80,8,80.1,8.2,80.1S8.8,80,9,79.8l0.3-0.3l0.3,0.3c0.2,0.2,0.5,0.3,0.7,0.3s0.5-0.1,0.7-0.3   c0.4-0.4,0.4-1,0-1.4l-0.3-0.3l0.3-0.3C11.3,77.5,11.3,76.9,10.9,76.5z"/><path style="fill:#FF8552;" d="M74.7,13.5c0.2,0.2,0.5,0.3,0.7,0.3s0.5-0.1,0.7-0.3l0.3-0.3l0.3,0.3c0.2,0.2,0.5,0.3,0.7,0.3s0.5-0.1,0.7-0.3   c0.4-0.4,0.4-1,0-1.4l-0.3-0.3l0.3-0.3c0.4-0.4,0.4-1,0-1.4c-0.4-0.4-1-0.4-1.4,0l-0.3,0.3l-0.3-0.3c-0.4-0.4-1-0.4-1.4,0   c-0.4,0.4-0.4,1,0,1.4l0.3,0.3l-0.3,0.3C74.4,12.5,74.4,13.1,74.7,13.5z"/><path style="fill:#FF8552;" d="M58.6,88.4c-1.8,0-3.3,1.5-3.3,3.3s1.5,3.3,3.3,3.3s3.3-1.5,3.3-3.3S60.4,88.4,58.6,88.4z M58.6,93c-0.7,0-1.3-0.6-1.3-1.3   s0.6-1.3,1.3-1.3s1.3,0.6,1.3,1.3S59.3,93,58.6,93z"/><path style="fill:#FF8552;" d="M85.2,79c-1.4,0-2.5,1.1-2.5,2.5s1.1,2.5,2.5,2.5s2.5-1.1,2.5-2.5S86.6,79,85.2,79z M85.2,82c-0.3,0-0.5-0.2-0.5-0.5   s0.2-0.5,0.5-0.5s0.5,0.2,0.5,0.5S85.5,82,85.2,82z"/><path style="fill:#FF8552;" d="M15.4,34.4c0-1.6-1.3-3-3-3s-3,1.3-3,3s1.3,3,3,3S15.4,36,15.4,34.4z M12.4,35.4c-0.5,0-1-0.4-1-1s0.4-1,1-1s1,0.4,1,1   S13,35.4,12.4,35.4z"/><ellipse transform="matrix(0.1101 -0.9939 0.9939 0.1101 -6.1428 27.7709)" cx="12.4" cy="17.3" rx="1.2" ry="1.2"/><ellipse transform="matrix(0.1101 -0.9939 0.9939 0.1101 -21.8053 150.0243)" cx="72.9" cy="87.2" rx="1.2" ry="1.2"/><ellipse transform="matrix(0.1101 -0.9939 0.9939 0.1101 -15.9814 138.4653)" cx="69.3" cy="78.2" rx="1.2" ry="1.2"/><ellipse transform="matrix(0.1101 -0.9939 0.9939 0.1101 -5.7848 145.785)" cx="78.5" cy="76.1" rx="1.2" ry="1.2"/><ellipse transform="matrix(0.866 -0.5 0.5 0.866 -28.2951 40.2425)" cx="60.9" cy="72.9" rx="1.2" ry="1.2"/><ellipse transform="matrix(0.866 -0.5 0.5 0.866 -23.4948 42.0425)" cx="66.7" cy="64.9" rx="1.2" ry="1.2"/><ellipse transform="matrix(0.866 -0.5 0.5 0.866 -9.6069 25.5133)" cx="42.8" cy="30.7" rx="1.2" ry="1.2"/><ellipse transform="matrix(0.1101 -0.9939 0.9939 0.1101 16.3831 149.9386)" cx="91.9" cy="65.8" rx="1.2" ry="1.2"/><ellipse transform="matrix(0.1101 -0.9939 0.9939 0.1101 -56.4791 127.219)" cx="42.8" cy="95.1" rx="1.2" ry="1.2"/><ellipse transform="matrix(0.1101 -0.9939 0.9939 0.1101 -8.0382 50.1549)" cx="24" cy="29.6" rx="1.2" ry="1.2"/><ellipse transform="matrix(0.1101 -0.9939 0.9939 0.1101 12.2397 57.9997)" cx="38.5" cy="22.2" rx="1.2" ry="1.2"/><ellipse transform="matrix(0.1101 -0.9939 0.9939 0.1101 37.0235 75.9822)" cx="60.9" cy="17.3" rx="1.2" ry="1.2"/><ellipse transform="matrix(0.1101 -0.9939 0.9939 0.1101 24.6957 67.4257)" cx="50" cy="19.9" rx="1.2" ry="1.2"/><ellipse transform="matrix(0.1101 -0.9939 0.9939 0.1101 -39.7167 114.3918)" cx="44" cy="79.4" rx="1.2" ry="1.2"/><ellipse transform="matrix(0.1101 -0.9939 0.9939 0.1101 -31.6902 127.5553)" cx="55.4" cy="81.5" rx="1.2" ry="1.2"/><ellipse transform="matrix(0.5628 -0.8266 0.8266 0.5628 -55.9652 52.9336)" cx="22.1" cy="79.4" rx="1.2" ry="1.2"/><ellipse transform="matrix(0.3953 -0.9185 0.9185 0.3953 -53.3264 55.7041)" cx="15.6" cy="68.4" rx="1.2" ry="1.2"/><ellipse transform="matrix(0.5628 -0.8266 0.8266 0.5628 1.4961 84.878)" cx="81" cy="41" rx="1.2" ry="1.2"/><ellipse transform="matrix(0.5628 -0.8266 0.8266 0.5628 0.3666 75.6027)" cx="71.7" cy="37.5" rx="1.2" ry="1.2"/><ellipse transform="matrix(0.5628 -0.8266 0.8266 0.5628 -50.6597 33.4196)" cx="6.3" cy="64.6" rx="1.2" ry="1.2"/><circle cx="22.8" cy="91.7" r="1.2"/><circle cx="36" cy="88.4" r="1.2"/><circle cx="45.2" cy="10" r="1.2"/><circle cx="36.1" cy="5.3" r="1.2"/><circle cx="87.9" cy="22.2" r="1.2"/><path style="fill:#FF8552;" d="M85.9,56.5c0.5,0,0.9-0.3,1-0.8c0.1-0.5-0.3-1.1-0.8-1.2L82.7,54c-0.5-0.1-1.1,0.3-1.2,0.8c-0.1,0.5,0.3,1.1,0.8,1.2   l3.4,0.6C85.7,56.5,85.8,56.5,85.9,56.5z"/><path style="fill:#FF8552;" d="M54.9,8C55,8,55,8,55.1,8c0.5,0,0.9-0.3,1-0.8l0.6-3.4c0.1-0.5-0.3-1.1-0.8-1.2c-0.5-0.1-1.1,0.3-1.2,0.8l-0.6,3.4   C54,7.4,54.4,7.9,54.9,8z"/><path style="fill:#FF8552;" d="M7.2,48.3c-0.3-0.5-0.9-0.6-1.4-0.2l-2.8,2c-0.5,0.3-0.6,0.9-0.2,1.4c0.2,0.3,0.5,0.4,0.8,0.4c0.2,0,0.4-0.1,0.6-0.2l2.8-2   C7.5,49.4,7.6,48.8,7.2,48.3z"/><path style="fill:#FF8552;" d="M76.2,26.4L75,27.6c-0.4,0.4-0.4,1,0,1.4c0.2,0.2,0.5,0.3,0.7,0.3s0.5-0.1,0.7-0.3l1.2-1.2c0.4-0.4,0.4-1,0-1.4   S76.6,26,76.2,26.4z"/></g></svg>